<svg width="166" height="166" viewBox="0 0 166 166" fill="none" xmlns="http://www.w3.org/2000/svg">
<path d="M75.5161 0.0726471C67.24 0.906677 59.7952 2.36624 53.7598 4.38182L50.5794 5.45911L48.5917 4.59032C42.3756 1.94922 36.3041 2.88751 32.2202 7.12717C27.9196 11.5406 27.016 17.7958 29.6904 24.6766C30.8469 27.6305 30.8469 28.4297 29.9795 33.5729C29.2929 37.7083 29.076 46.0139 29.4374 56.6826C29.582 61.4088 29.5459 61.652 28.4617 64.6754C27.269 68.0463 25.1729 72.7724 21.3059 80.8347C16.0656 91.8162 13.1382 99.948 11.4758 108.254C10.6807 112.285 10.5361 113.953 10.5 119.582C10.5 126.88 10.9698 130.46 12.8852 136.576C14.9091 143.213 20.041 152.805 23.5827 156.627C28.4617 161.875 40.3156 165.976 50.7963 165.976C57.2292 165.976 63.0839 164.342 68.1797 161.145C73.2393 157.983 75.8414 154.16 75.8414 149.816C75.8775 146.619 74.9379 144.742 72.0105 141.789C69.4446 139.217 65.2162 136.958 62.2888 136.576L60.518 136.333L60.5902 125.004L60.6987 113.675L80.395 113.501C98.3206 113.327 100.2 113.258 101.248 112.702C103.452 111.555 104.211 108.497 102.802 106.307C101.501 104.257 102.188 104.292 80.5757 104.118C60.9878 103.944 60.6987 103.944 60.6987 103.249C60.6987 102.554 60.9878 102.554 80.3228 102.45C98.9349 102.381 100.055 102.415 101.501 103.041C102.368 103.388 103.525 104.257 104.103 104.987C105.079 106.238 105.115 106.481 105.404 111.624C105.585 114.578 105.657 121.32 105.621 126.602L105.512 136.194L103.272 136.645C98.3928 137.584 92.9718 141.476 90.948 145.472C88.9603 149.364 89.8999 153.952 93.4416 157.774C96.5135 161.076 102.838 164.307 108.584 165.489C113.68 166.532 121.884 165.941 128.353 164.064C133.919 162.431 139.556 159.477 142.086 156.905C143.749 155.168 147.037 150.025 149.242 145.646C157.699 128.861 157.59 111.659 148.881 90.5651C147.796 87.9935 145.845 83.6149 144.544 80.8347C140.894 73.1895 138.002 66.6215 137.063 63.7718C136.34 61.4435 136.268 60.7137 136.412 56.5088C136.81 45.6664 136.593 37.4651 135.726 32.5304L134.931 27.839L135.653 26.1709C137.46 22.105 138.111 17.6568 137.352 14.2164C136.701 11.1236 135.726 9.28175 133.593 7.05766C129.546 2.88751 123.402 1.94922 117.258 4.59032L115.27 5.45911L112.054 4.38182C103.416 1.49745 95.2486 0.211655 84.5512 0.0379028C80.395 -0.031601 76.3112 0.00314331 75.5161 0.0726471ZM88.382 19.4639C91.5623 20.5412 94.4174 22.383 96.9472 25.0589C104.934 33.5034 108.765 49.4543 104.862 58.4201C102.946 62.9031 99.2963 66.2739 94.562 67.9768C90.0083 69.6448 88.382 69.8881 82.7442 69.8533C77.9014 69.8533 76.9617 69.7491 74.0705 68.8803C67.5292 66.969 64.1681 64.4669 61.6744 59.6712C59.8313 56.1265 59.2531 53.0684 59.5422 47.821C60.0843 37.3608 65.8667 26.1709 73.0947 21.5142C77.6845 18.5951 83.5031 17.7958 88.382 19.4639ZM61.9274 24.7461C62.7948 25.7886 62.8671 26.6574 62.2527 27.7695C60.8794 30.2716 57.6268 29.785 57.6268 27.0744C57.6268 26.2057 57.9159 25.5801 58.6748 24.8504C59.9759 23.5993 60.9516 23.5645 61.9274 24.7461ZM107.175 24.8504C108.982 26.5879 108.331 29.4028 106.091 29.4028C104.537 29.368 103.163 27.9085 103.163 26.2752C103.163 25.4064 104.681 23.8426 105.512 23.8426C105.838 23.8426 106.597 24.2943 107.175 24.8504ZM99.73 106.551C99.8746 106.759 99.7662 107.142 99.5493 107.42C99.1518 107.871 96.2967 107.941 80.2143 107.941C64.132 107.941 61.2769 107.871 60.8794 107.42C60.6625 107.142 60.5541 106.759 60.6987 106.551C60.8432 106.307 67.2039 106.203 80.2143 106.203C93.2248 106.203 99.5855 106.307 99.73 106.551ZM99.73 110.547C99.73 111.242 99.4409 111.242 80.4312 111.346C68.6856 111.381 60.9516 111.277 60.7709 111.103C60.5902 110.929 60.518 110.512 60.6264 110.234C60.8432 109.713 62.8671 109.678 80.2866 109.748C99.4409 109.852 99.73 109.852 99.73 110.547Z" fill="#1C1C1C"/>
<path d="M78.9854 23.3561C77.9012 23.6341 76.4918 24.1901 75.8051 24.5724C73.3837 25.9972 71.7935 30.3063 73.1669 31.6269C73.456 31.9049 74.7932 32.3219 76.1304 32.5304C79.2023 32.9822 80.2142 33.4339 80.7202 34.5112C81.1538 35.4148 81.2623 42.9211 80.9009 45.1451C80.7202 46.1529 80.4672 46.5004 79.7082 46.709C78.7686 46.9522 72.7332 46.9522 70.2756 46.7437C69.083 46.6047 69.0107 46.6742 69.0107 47.6125C69.0107 48.3075 69.336 48.8288 70.0227 49.3501C70.9262 50.0103 71.5406 50.0798 75.263 50.0798C78.8409 50.0798 79.7444 49.9756 81.2261 49.3153L82.9247 48.5508L84.6594 49.3153C86.105 49.9756 87.0085 50.0798 90.5864 50.0798C94.3088 50.0798 94.9232 50.0103 95.8267 49.3501C96.5134 48.8288 96.8387 48.3075 96.8387 47.6125C96.8387 46.6742 96.7664 46.6047 95.5738 46.7437C93.1162 46.9522 87.0808 46.9522 86.1412 46.709C84.9847 46.3962 84.7317 45.0756 84.7317 39.2722C84.7317 33.6425 85.0208 33.2254 89.719 32.5304C91.0562 32.3219 92.3934 31.9049 92.6825 31.6269C94.0559 30.3063 92.4657 25.9972 90.0443 24.5724C87.2615 22.939 82.6356 22.4178 78.9854 23.3561Z" fill="#1C1C1C"/>
</svg>
