<svg width="165" height="27" viewBox="0 0 165 27" fill="none" xmlns="http://www.w3.org/2000/svg">
<path d="M0.810547 1.25391H8.91113L14.79 15.6436H15.0977L20.9766 1.25391H29.0771V26H22.7197V11.4395H22.5146L16.875 25.8291H12.9785L7.37305 11.3369H7.16797V26H0.810547V1.25391Z" fill="#FFB347"/>
<path d="M56.2158 13.627C56.2158 21.8643 50.9521 26.3418 44.2529 26.3418C37.4854 26.3418 32.2559 21.8301 32.2559 13.627C32.2559 5.38965 37.4854 0.912109 44.2529 0.912109C50.9521 0.912109 56.2158 5.38965 56.2158 13.627ZM49.5166 13.627C49.5166 9.08105 47.6367 6.58594 44.2529 6.58594C40.835 6.58594 38.9551 9.08105 38.9551 13.627C38.9551 18.1729 40.835 20.668 44.2529 20.668C47.6367 20.668 49.5166 18.1729 49.5166 13.627Z" fill="#FFB347"/>
<path d="M59.3945 1.25391H67.4951L73.374 15.6436H73.6816L79.5605 1.25391H87.6611V26H81.3037V11.4395H81.0986L75.459 25.8291H71.5625L65.957 11.3369H65.752V26H59.3945V1.25391Z" fill="#FFB347"/>
<path d="M114.8 13.627C114.8 21.8643 109.536 26.3418 102.837 26.3418C96.0693 26.3418 90.8398 21.8301 90.8398 13.627C90.8398 5.38965 96.0693 0.912109 102.837 0.912109C109.536 0.912109 114.8 5.38965 114.8 13.627ZM108.101 13.627C108.101 9.08105 106.221 6.58594 102.837 6.58594C99.4189 6.58594 97.5391 9.08105 97.5391 13.627C97.5391 18.1729 99.4189 20.668 102.837 20.668C106.221 20.668 108.101 18.1729 108.101 13.627Z" fill="#FFB347"/>
<path d="M131.309 8.91016C131.172 7.23535 130.078 6.27832 127.856 6.27832C125.703 6.27832 124.746 7.09863 124.712 8.26074C124.678 9.52539 125.84 10.2432 128.13 10.7217L130.181 11.2002C135.513 12.3281 137.871 14.9258 137.905 18.7197C137.871 23.5732 134.146 26.3076 127.891 26.3076C121.499 26.3076 117.363 23.5049 117.295 17.4209H123.516C123.618 19.7109 125.225 20.9414 127.788 20.9414C130.01 20.9414 131.206 20.0186 131.24 18.7197C131.206 17.5234 130.215 16.8398 127.446 16.2246L124.951 15.6777C120.61 14.7207 117.944 12.5674 117.944 8.73926C117.91 4.05664 122.046 0.912109 127.856 0.912109C133.804 0.912109 137.529 4.09082 137.563 8.91016H131.309Z" fill="#FFB347"/>
<path d="M164.36 13.627C164.36 21.8643 159.097 26.3418 152.397 26.3418C145.63 26.3418 140.4 21.8301 140.4 13.627C140.4 5.38965 145.63 0.912109 152.397 0.912109C159.097 0.912109 164.36 5.38965 164.36 13.627ZM157.661 13.627C157.661 9.08105 155.781 6.58594 152.397 6.58594C148.979 6.58594 147.1 9.08105 147.1 13.627C147.1 18.1729 148.979 20.668 152.397 20.668C155.781 20.668 157.661 18.1729 157.661 13.627Z" fill="#FFB347"/>
<path d="M107.06 3.25C107.435 4.375 110.525 7 111.56 7C113.06 7 113.06 4.66053 113.06 3.625C113.06 2.12503 111.935 1 110.435 1C108.56 1 106.632 1.9673 107.06 3.25Z" fill="#FFB347"/>
<path d="M48.4785 3.25C48.8535 4.375 51.943 7 52.9785 7C54.4785 7 54.4785 4.66053 54.4785 3.625C54.4785 2.12503 53.3535 1 51.8535 1C49.9785 1 48.0509 1.9673 48.4785 3.25Z" fill="#FFB347"/>
<path d="M156.718 3.25C157.093 4.375 160.183 7 161.218 7C162.718 7 162.718 4.66053 162.718 3.625C162.718 2.12503 161.593 1 160.093 1C158.218 1 156.291 1.9673 156.718 3.25Z" fill="#FFB347"/>
<path d="M98 3.25C97.625 4.375 94.5355 7 93.5 7C92 7 92 4.66053 92 3.625C92 2.12503 93.125 1 94.625 1C96.5 1 98.4276 1.9673 98 3.25Z" fill="#FFB347"/>
<path d="M39.4189 3.25C39.0439 4.375 35.9545 7 34.9189 7C33.4189 7 33.4189 4.66053 33.4189 3.625C33.4189 2.12503 34.5439 1 36.0439 1C37.9189 1 39.8465 1.9673 39.4189 3.25Z" fill="#FFB347"/>
<path d="M147.659 3.25C147.284 4.375 144.194 7 143.159 7C141.659 7 141.659 4.66053 141.659 3.625C141.659 2.12503 142.784 1 144.284 1C146.159 1 148.086 1.9673 147.659 3.25Z" fill="#FFB347"/>
<path d="M105.802 11.1611C105.802 11.5753 105.578 11.9111 105.302 11.9111C105.026 11.9111 104.802 11.5753 104.802 11.1611C104.802 10.7469 105.026 10.4111 105.302 10.4111C105.578 10.4111 105.802 10.7469 105.802 11.1611Z" fill="#FFB347"/>
<path d="M47.2207 11.1611C47.2207 11.5753 46.9968 11.9111 46.7207 11.9111C46.4446 11.9111 46.2207 11.5753 46.2207 11.1611C46.2207 10.7469 46.4446 10.4111 46.7207 10.4111C46.9968 10.4111 47.2207 10.7469 47.2207 11.1611Z" fill="#FFB347"/>
<path d="M155.46 11.1611C155.46 11.5753 155.237 11.9111 154.96 11.9111C154.684 11.9111 154.46 11.5753 154.46 11.1611C154.46 10.7469 154.684 10.4111 154.96 10.4111C155.237 10.4111 155.46 10.7469 155.46 11.1611Z" fill="#FFB347"/>
<path d="M100.802 11.1611C100.802 11.5753 100.578 11.9111 100.302 11.9111C100.026 11.9111 99.8018 11.5753 99.8018 11.1611C99.8018 10.7469 100.026 10.4111 100.302 10.4111C100.578 10.4111 100.802 10.7469 100.802 11.1611Z" fill="#FFB347"/>
<path d="M42.2207 11.1611C42.2207 11.5753 41.9968 11.9111 41.7207 11.9111C41.4446 11.9111 41.2207 11.5753 41.2207 11.1611C41.2207 10.7469 41.4446 10.4111 41.7207 10.4111C41.9968 10.4111 42.2207 10.7469 42.2207 11.1611Z" fill="#FFB347"/>
<path d="M150.46 11.1611C150.46 11.5753 150.237 11.9111 149.96 11.9111C149.684 11.9111 149.46 11.5753 149.46 11.1611C149.46 10.7469 149.684 10.4111 149.96 10.4111C150.237 10.4111 150.46 10.7469 150.46 11.1611Z" fill="#FFB347"/>
<path d="M102.248 13.1968C102.093 13.2374 101.892 13.3185 101.793 13.3743C101.447 13.5822 101.22 14.211 101.416 14.4037C101.458 14.4442 101.649 14.5051 101.84 14.5355C102.279 14.6014 102.424 14.6673 102.496 14.8245C102.558 14.9564 102.574 16.0516 102.522 16.3762C102.496 16.5232 102.46 16.5739 102.352 16.6043C102.217 16.6398 101.354 16.6398 101.003 16.6094C100.832 16.5891 100.822 16.5993 100.822 16.7362C100.822 16.8376 100.868 16.9136 100.967 16.9897C101.096 17.0861 101.184 17.0962 101.716 17.0962C102.228 17.0962 102.357 17.081 102.569 16.9846L102.812 16.8731L103.06 16.9846C103.267 17.081 103.396 17.0962 103.907 17.0962C104.44 17.0962 104.528 17.0861 104.657 16.9897C104.755 16.9136 104.802 16.8376 104.802 16.7362C104.802 16.5993 104.791 16.5891 104.621 16.6094C104.269 16.6398 103.406 16.6398 103.272 16.6043C103.106 16.5587 103.07 16.366 103.07 15.5192C103.07 14.6978 103.112 14.6369 103.783 14.5355C103.975 14.5051 104.166 14.4442 104.207 14.4037C104.404 14.211 104.176 13.5822 103.83 13.3743C103.432 13.136 102.77 13.0599 102.248 13.1968Z" fill="#FFB347"/>
<path d="M43.6668 13.1968C43.5117 13.2374 43.3102 13.3185 43.212 13.3743C42.8656 13.5822 42.6382 14.211 42.8346 14.4037C42.876 14.4442 43.0672 14.5051 43.2585 14.5355C43.6978 14.6014 43.8425 14.6673 43.9149 14.8245C43.9769 14.9564 43.9924 16.0516 43.9407 16.3762C43.9149 16.5232 43.8787 16.5739 43.7702 16.6043C43.6358 16.6398 42.7726 16.6398 42.4211 16.6094C42.2506 16.5891 42.2402 16.5993 42.2402 16.7362C42.2402 16.8376 42.2868 16.9136 42.385 16.9897C42.5142 17.0861 42.602 17.0962 43.1344 17.0962C43.6461 17.0962 43.7753 17.081 43.9873 16.9846L44.2302 16.8731L44.4783 16.9846C44.685 17.081 44.8143 17.0962 45.326 17.0962C45.8583 17.0962 45.9462 17.0861 46.0754 16.9897C46.1736 16.9136 46.2201 16.8376 46.2201 16.7362C46.2201 16.5993 46.2098 16.5891 46.0392 16.6094C45.6878 16.6398 44.8246 16.6398 44.6902 16.6043C44.5248 16.5587 44.4886 16.366 44.4886 15.5192C44.4886 14.6978 44.53 14.6369 45.2019 14.5355C45.3931 14.5051 45.5844 14.4442 45.6257 14.4037C45.8222 14.211 45.5947 13.5822 45.2484 13.3743C44.8504 13.136 44.1888 13.0599 43.6668 13.1968Z" fill="#FFB347"/>
<path d="M151.907 13.1968C151.751 13.2374 151.55 13.3185 151.452 13.3743C151.105 13.5822 150.878 14.211 151.074 14.4037C151.116 14.4442 151.307 14.5051 151.498 14.5355C151.938 14.6014 152.082 14.6673 152.155 14.8245C152.217 14.9564 152.232 16.0516 152.18 16.3762C152.155 16.5232 152.118 16.5739 152.01 16.6043C151.876 16.6398 151.012 16.6398 150.661 16.6094C150.49 16.5891 150.48 16.5993 150.48 16.7362C150.48 16.8376 150.526 16.9136 150.625 16.9897C150.754 17.0861 150.842 17.0962 151.374 17.0962C151.886 17.0962 152.015 17.081 152.227 16.9846L152.47 16.8731L152.718 16.9846C152.925 17.081 153.054 17.0962 153.566 17.0962C154.098 17.0962 154.186 17.0861 154.315 16.9897C154.413 16.9136 154.46 16.8376 154.46 16.7362C154.46 16.5993 154.45 16.5891 154.279 16.6094C153.928 16.6398 153.064 16.6398 152.93 16.6043C152.765 16.5587 152.728 16.366 152.728 15.5192C152.728 14.6978 152.77 14.6369 153.442 14.5355C153.633 14.5051 153.824 14.4442 153.865 14.4037C154.062 14.211 153.834 13.5822 153.488 13.3743C153.09 13.136 152.429 13.0599 151.907 13.1968Z" fill="#FFB347"/>
</svg>
